<?xml version="1.0" encoding="utf-8"?>
<!-- Generator: Adobe Illustrator 23.1.0, SVG Export Plug-In . SVG Version: 6.00 Build 0)  -->
<svg version="1.1" id="Layer_1" xmlns="http://www.w3.org/2000/svg" xmlns:xlink="http://www.w3.org/1999/xlink" x="0px" y="0px"
	 viewBox="0 0 810 810" style="enable-background:new 0 0 810 810;" xml:space="preserve">
<style type="text/css">
	.st0{clip-path:url(#SVGID_2_);}
</style>
<g>
	<defs>
		<rect id="SVGID_1_" width="810" height="810"/>
	</defs>
	<clipPath id="SVGID_2_">
		<use xlink:href="#SVGID_1_"  style="overflow:visible;"/>
	</clipPath>
	<g class="st0">
		<path d="M407.3,1.5C238.5,1.5,93.6,105.1,32.9,252.2c-2,4.4-2.9,8.9-2.9,13.6c-0.1,4.7,0.8,9.3,2.6,13.7c1.8,4.3,4.3,8.2,7.7,11.6
			c3.3,3.3,7.2,6,11.6,7.8c4.3,1.8,8.9,2.7,13.6,2.6c4.7,0,9.3-1,13.6-2.8c4.3-1.9,8.1-4.5,11.5-7.8c3.2-3.4,5.8-7.4,7.5-11.8
			C148.1,157.7,267.3,71.9,407.3,71.9c185.2,0,334.7,149.4,334.7,334.8c0,185.2-149.4,334.7-334.7,334.7
			c-140,0-259.1-85.7-309.3-207.2c-1.7-4.4-4.2-8.3-7.5-11.7c-3.3-3.4-7.2-6.1-11.5-7.9c-4.3-1.9-8.9-2.7-13.6-2.8
			c-4.7,0-9.3,0.9-13.6,2.6c-4.4,1.9-8.2,4.4-11.6,7.8c-3.3,3.4-5.9,7.3-7.7,11.7s-2.6,8.9-2.6,13.6c0,4.8,1,9.3,2.9,13.6
			c60.7,147.2,205.6,250.8,374.4,250.8c223.3,0,405.1-181.8,405.1-405.1C812.4,183.3,630.6,1.5,407.3,1.5z M441.5,247.7
			c-7.2,0-13.7,2.1-19.6,6c-6,4-10.3,9.3-13,16c-2.6,6.7-3.2,13.4-1.8,20.5c1.5,7,4.7,13,9.9,18.1l63.1,63.1H36.7
			c-4.7,0-9.3,0.8-13.6,2.6c-4.4,1.8-8.2,4.3-11.6,7.7c-3.4,3.3-6,7.2-7.8,11.5c-1.8,4.3-2.6,8.8-2.6,13.6c0,4.7,0.9,9.2,2.6,13.5
			c1.9,4.3,4.4,8.2,7.8,11.5c3.3,3.3,7.2,5.9,11.6,7.7c4.3,1.8,8.9,2.6,13.6,2.6h443.4L417,505c-3.4,3.3-6.1,7.2-7.9,11.5
			s-2.8,8.9-2.9,13.6c0,4.7,0.9,9.3,2.6,13.6c1.8,4.4,4.3,8.2,7.7,11.7c3.4,3.3,7.3,5.9,11.7,7.7c4.3,1.8,8.9,2.6,13.6,2.6
			c4.7-0.1,9.3-1.1,13.6-2.9c4.3-1.9,8.1-4.5,11.4-7.9L590,431.5c3.3-3.2,5.9-7.1,7.7-11.4s2.6-8.8,2.6-13.4c0-4.7-0.9-9.2-2.6-13.5
			s-4.3-8.1-7.7-11.4L466.7,258.4C459.8,251.3,451.4,247.7,441.5,247.7z"/>
	</g>
</g>
</svg>
