<?xml version="1.0" encoding="utf-8"?>
<!-- Generator: Adobe Illustrator 23.1.0, SVG Export Plug-In . SVG Version: 6.00 Build 0)  -->
<svg version="1.1" id="Layer_1" xmlns="http://www.w3.org/2000/svg" xmlns:xlink="http://www.w3.org/1999/xlink" x="0px" y="0px"
	 viewBox="0 0 821.5 801.2" style="enable-background:new 0 0 821.5 801.2;" xml:space="preserve">
<style type="text/css">
	.st0{clip-path:url(#SVGID_2_);}
	.st1{fill:#BC9C22;}
</style>
<g>
	<defs>
		<rect id="SVGID_1_" x="-1.5" y="0.1" width="836.8" height="803.3"/>
	</defs>
	<clipPath id="SVGID_2_">
		<use xlink:href="#SVGID_1_"  style="overflow:visible;"/>
	</clipPath>
	<g class="st0">
		<path class="st1" d="M543,800.2c-1.4,0.4-2.7,0.5-4.1,0.5l-3.1-2.8v-23.9c0-22.3,0.3-56,0.3-94.7c0.5-23.1-4.2-45.1-14.1-66
			c85.4-15.4,181.2-61.7,181.2-227.3c0.3-21.8-3.1-43.1-10.3-63.7c-7.1-20.7-17.7-39.5-31.5-56.4c5.2-19.5,7.1-39.2,5.8-59.3
			s-5.9-39.4-13.7-57.9c-2.2-5.5-6.1-9.2-11.6-11c-5-1.4-10.2-2.1-15.4-1.9c-41.6,3.7-78.8,18.2-111.9,43.7
			c-34.2-8.5-68.9-12.9-104.1-13.1c-35.2,0.1-69.9,4.4-104.1,13c-33.1-25.5-70.4-40.1-112-43.8c-5.2-0.1-10.3,0.5-15.4,2
			c-5.6,1.8-9.5,5.5-11.6,11c-7.8,18.6-12.4,37.9-13.7,57.9c-1.4,20.1,0.6,39.8,5.8,59.2c-13.9,16.9-24.3,35.7-31.5,56.4
			c-7.2,20.7-10.6,41.9-10.3,63.8c0,165.5,95.7,212,180.9,227.6c-4.7,9.6-8.2,19.6-10.4,30.1c-10.3,3.7-20.9,5.7-31.9,5.8
			c-15.7,0.4-29.5-4.6-41.4-14.8c-1.1-1.5-2.5-2.7-4.1-3.7c-2.5-2.8-5-5.8-7.2-8.9l-0.8-0.9c-0.2-0.3-0.4-0.7-0.7-1l-3.1-4.1
			c-1-1.2-2-2.5-2.9-3.7c-8.6-15.1-20.2-27.5-34.7-37c-14.5-9.6-30.5-15.4-47.7-17.3c-19.9,0-33.1,7-37,19.8
			c-6.3,20.1,15.5,35.1,26,42c18.8,12.9,31.4,30.3,37.9,52.1c4.6,11.9,10.9,22.8,19,32.7c8,9.9,17.5,18.2,28.2,25.1
			c10.8,6.9,22.3,11.9,34.6,15c12.4,3.2,24.8,4.3,37.6,3.5c8.3,0,16.5-0.5,24.7-1.6l0.5,51.4l-3.3,2.7c-1.2,0-2.5,0-1.4,0.3
			c-15.2-5.1-30.1-11.1-44.7-18c-14.6-6.9-28.6-14.5-42.3-23.1c-13.7-8.5-26.8-17.8-39.4-27.8c-12.6-10.1-24.5-20.9-35.8-32.3
			c-11.3-11.5-21.9-23.6-31.8-36.3c-9.9-12.7-19-26-27.3-39.7c-8.4-13.8-15.8-28-22.5-42.7c-6.7-14.7-12.5-29.7-17.4-45
			c-4.9-15.4-8.9-31-12-46.8s-5.2-31.8-6.4-47.8c-1.2-16.1-1.4-32.2-0.8-48.3c0.7-16.1,2.3-32.1,4.8-48c2.5-16,6.1-31.6,10.5-47.1
			c4.4-15.5,9.7-30.7,15.9-45.6c6.1-14.9,13.2-29.4,21.1-43.4c7.8-14.1,16.5-27.7,26-40.7c9.4-13,19.6-25.4,30.6-37.3
			c10.9-11.8,22.5-23,34.7-33.5c12.2-10.5,25-20.2,38.4-29.2c13.3-9,27.2-17.1,41.5-24.4c14.3-7.3,29-13.8,44.1-19.3
			c15.1-5.6,30.5-10.3,46.1-14.1c15.6-3.8,31.4-6.7,47.5-8.6c16-2,32-2.9,48-3c16.1,0,32.2,0.9,48.1,2.7c16,1.8,31.8,4.6,47.5,8.3
			c15.7,3.7,31.1,8.3,46.2,13.9c15.2,5.5,29.9,11.9,44.3,19.2s28.2,15.3,41.7,24.2c13.4,8.9,26.3,18.6,38.6,29s23.9,21.5,34.9,33.3
			s21.2,24.1,30.8,37.1c9.5,12.9,18.2,26.5,26.2,40.5c8,14,15.1,28.4,21.3,43.3c6.3,14.8,11.7,30,16.1,45.5
			c4.5,15.5,8,31.2,10.7,47.1c2.6,15.9,4.3,31.9,5.1,48c0.8,16.1,0.6,32.2-0.5,48.3c-1.1,16.1-3.1,32-6.1,47.9s-6.9,31.4-11.7,46.8
			c-4.8,15.4-10.5,30.5-17.1,45.2c-6.6,14.6-14,29-22.3,42.8c-8.2,13.9-17.3,27.1-27.1,39.9c-9.9,12.7-20.4,24.9-31.6,36.4
			c-11.2,11.6-23.1,22.4-35.6,32.5c-12.5,10.1-25.6,19.5-39.2,28.1c-13.6,8.6-27.7,16.3-42.2,23.3c-14.5,6.9-29.4,12.9-44.6,18.2
			L543,800.2z"/>
	</g>
</g>
</svg>
