<?xml version="1.0" encoding="utf-8"?>
<!-- Generator: Adobe Illustrator 23.1.0, SVG Export Plug-In . SVG Version: 6.00 Build 0)  -->
<svg version="1.1" id="Layer_1" xmlns="http://www.w3.org/2000/svg" xmlns:xlink="http://www.w3.org/1999/xlink" x="0px" y="0px"
	 viewBox="0 0 805.6 805.6" style="enable-background:new 0 0 805.6 805.6;" xml:space="preserve">
<style type="text/css">
	.st0{clip-path:url(#SVGID_2_);}
	.st1{fill:#BC9C22;}
</style>
<g>
	<defs>
		<rect id="SVGID_1_" width="805.6" height="805.6"/>
	</defs>
	<clipPath id="SVGID_2_">
		<use xlink:href="#SVGID_1_"  style="overflow:visible;"/>
	</clipPath>
	<g class="st0">
		<path class="st1" d="M109,0C49.2,0,0,49.1,0,108.9v588c0,59.5,49.2,108.7,109,108.7h588c59.5,0,108.7-49.2,108.7-108.7v-588
			C805.6,49.1,756.5,0,696.9,0H109z M109,62h588c26.2,0,46.7,20.6,46.7,46.9v588c0,26.2-20.6,46.7-46.7,46.7H109
			c-26.4,0-47-20.5-47-46.7v-588C62,82.5,82.5,62,109,62z M185.9,123.9c-34.2,0-62,27.9-62,62c0,34.2,27.9,62,62,62
			c34.1,0,62-27.9,62-62C247.9,151.8,220,123.9,185.9,123.9z M123.9,309.8v371.8h124V309.8H123.9z M309.8,309.8v371.8h124V515.6
			c0-51.5,4.8-97.8,66.8-97.8c61,0,57.1,55.4,57.1,101.2v162.7h124V498.1c0-106.5-22.3-188.3-143.1-188.3
			c-58.1,0-87.4,23.2-103.3,54.2h-1.4v-54.2H309.8z"/>
	</g>
</g>
</svg>
