<?xml version="1.0" encoding="utf-8"?>
<!-- Generator: Adobe Illustrator 23.1.0, SVG Export Plug-In . SVG Version: 6.00 Build 0)  -->
<svg version="1.1" id="Layer_1" xmlns="http://www.w3.org/2000/svg" xmlns:xlink="http://www.w3.org/1999/xlink" x="0px" y="0px"
	 viewBox="0 0 1041.3 800.9" style="enable-background:new 0 0 1041.3 800.9;" xml:space="preserve">
		<path class="st1" d="M1019.4,757.3h-0.5v-89.7c0-2.9-0.6-5.7-1.7-8.3c-1.1-2.6-2.7-5-4.8-7.1c-2-2-4.4-3.6-7-4.7
			c-2.7-1.1-5.5-1.7-8.3-1.7h-37.5c-5-1.9-9.1-5-12.6-9V168.1c2.8-5.6,6.9-9.9,12.3-13h38c2.9,0,5.7-0.5,8.3-1.7
			c2.6-1.1,5-2.6,7.1-4.7s3.6-4.4,4.7-7c1.1-2.7,1.7-5.4,1.7-8.3V21.9c0-2.8-0.5-5.6-1.7-8.3s-2.6-5-4.7-7.1c-2.1-2-4.4-3.6-7.1-4.7
			c-2.6-1.1-5.4-1.6-8.3-1.6H638.6c-4.9,0-9.3,1.5-13.2,4.4c-3.9,3-6.5,6.8-7.7,11.5L518,383L419,16.3c-1.3-4.7-3.9-8.5-7.9-11.5
			c-3.9-3-8.3-4.4-13.2-4.4H38.2c-2.8,0-5.6,0.5-8.3,1.6c-2.6,1.1-5,2.6-7.1,4.7s-3.6,4.4-4.7,7.1c-1.1,2.6-1.7,5.4-1.7,8.3v111.6
			c0,2.8,0.6,5.6,1.7,8.3c1.1,2.7,2.6,5,4.7,7.1c2.1,2.1,4.4,3.6,7.1,4.7c2.7,1.1,5.5,1.7,8.3,1.7h36.2c5.7,2.5,10.2,6.3,13.6,11.6
			V635c-3.1,5.4-7.7,9-13.6,10.9H38.2c-2.8,0-5.6,0.5-8.3,1.7c-2.6,1.1-5,2.6-7.1,4.7c-2.1,2.1-3.6,4.4-4.7,7
			c-1.1,2.7-1.7,5.5-1.7,8.3v91.1c-4.8,1.1-8.7,3.6-11.7,7.4C1.5,770,0,774.3,0,779.2c0,2.8,0.5,5.6,1.7,8.3s2.6,5,4.7,7
			c2.1,2.1,4.4,3.6,7.1,4.7c2.6,1.1,5.4,1.7,8.3,1.7h304.2c2.9,0,5.7-0.6,8.3-1.7c2.7-1.1,5-2.6,7.1-4.7c2.1-2.1,3.6-4.4,4.8-7.1
			c1.1-2.6,1.7-5.4,1.7-8.3V667.6c0-2.9-0.5-5.7-1.7-8.3c-1.1-2.7-2.7-5-4.8-7.1c-2-2.1-4.4-3.6-7.1-4.7c-2.6-1.1-5.4-1.7-8.3-1.7
			h-50.2V319.6L402.9,785c1.3,4.7,3.9,8.5,7.8,11.4c3.9,3,8.3,4.4,13.2,4.4h130c4.9,0,9.3-1.5,13.2-4.4c3.8-3,6.5-6.7,7.7-11.4
			l128.8-464.2v325.1h-50.1c-2.9,0-5.7,0.6-8.3,1.7c-2.6,1.1-5,2.7-7.1,4.7c-2,2.1-3.6,4.4-4.7,7.1c-1.1,2.6-1.7,5.4-1.6,8.3v111.6
			c0,2.9,0.5,5.6,1.7,8.3c1.1,2.7,2.6,5,4.7,7.1c2.1,2,4.4,3.6,7,4.7c2.7,1.1,5.5,1.7,8.3,1.7h365.9c3,0.1,5.9-0.3,8.7-1.4
			c2.8-1,5.2-2.6,7.4-4.6c2.1-2.1,3.8-4.4,5-7.1c1.2-2.7,1.8-5.6,1.8-8.5s-0.6-5.8-1.8-8.5s-2.8-5.2-5-7.2c-2.2-2.1-4.6-3.6-7.4-4.6
			c-2.8-1-5.7-1.5-8.7-1.3V757.3z"/>
</svg>
