<?xml version="1.0" encoding="utf-8"?>
<!-- Generator: Adobe Illustrator 23.1.0, SVG Export Plug-In . SVG Version: 6.00 Build 0)  -->
<svg version="1.1" id="Layer_1" xmlns="http://www.w3.org/2000/svg" xmlns:xlink="http://www.w3.org/1999/xlink" x="0px" y="0px"
	 viewBox="0 0 951.5 805.2" style="enable-background:new 0 0 951.5 805.2;" xml:space="preserve">
<style type="text/css">
	.st0{clip-path:url(#SVGID_2_);}
	.st1{fill:#BC9C22;}
</style>
		<path class="st1" d="M948.3,202.2c-4.7-7.4-13.8-10.9-22.2-8.4c-15.7,4.6-35.7,8.7-59.3,12.3c21.9-11.1,39.3-23.1,51.7-35.5
			c6.8-6.7,7.7-17.2,2.2-25c-5.4-7.8-15.7-10.5-24.4-6.5c-22.8,10.7-47.7,16.1-73.9,16.3C777.9,60,698.2,24.7,695.1,23.5
			C646.5,1.4,600-5.2,558.6,4c-111,24.5-161.7,156.1-145.1,263.9c-29.5-2-186.7-17.8-384.2-129.5c-6.1-3.5-13.6-3.4-19.7,0.2
			c-6,3.6-9.7,10.2-9.6,17.2c2.3,116.7,109.3,172.4,155.2,190.9c-9.7,1-24.6,1.2-39.1,0.7c-8.7-0.4-16.7,5.1-19.4,13.5
			c-2.8,8.3,0.5,17.4,7.7,22.2c32.1,21.4,64.4,35.3,95.7,41.6c-6.8,0.5-13.8,0.8-20.7,1c-8.7,0.3-16.3,6.3-18.4,14.7
			c-2.2,8.5,1.6,17.3,9.2,21.6c29.4,17,74.9,37.3,125.5,37.3l3.7-0.1c-5.6,2.1-11.9,3.9-18.7,5.4c-2.1,0.4-4.1,0.9-6.2,1.2
			c-8.8,1.6-15.4,9-15.9,18c-0.5,9,5.1,17.1,13.6,19.8c37.2,11.6,72,14.2,101.5,7.7c5.5-1.2,11-2.8,16.3-4.7h0.1
			c-0.9,30-16.6,130.6-186.6,168.3l-2.2,0.5c-10.6,2.4-33.2,5.1-61.7,5.1c-11.8,0-23.6-0.4-35.1-1.3c-9.5-0.9-18.1,5.4-20.5,14.6
			c-2.4,9.1,2.1,18.7,10.8,22.6c65.1,30,136.6,46.4,212.5,48.7c0.3,0,0.5,0,0.7,0c40.7,0,81.4-4.5,121-13.2
			c72.6-16.1,143.2-46.9,209.7-91.7c1.5-0.6,2.9-1.3,4.2-2.2c94.7-65,164.3-156.1,206.9-270.7c0.2-0.4,0.3-0.7,0.5-1.2
			c17.2-57.4,23.2-109.2,17.8-154.1c33.6-10.8,59.9-26.4,78.2-46.3C952,219.2,952.8,209.6,948.3,202.2z"/>
</svg>
